<?xml version="1.0" encoding="UTF-8" standalone="no"?>
<svg
   id="Capa_1"
   enable-background="new 0 0 512 512"
   height="256"
   viewBox="0 0 256 256"
   width="256"
   version="1.1"
   sodipodi:docname="logo.svg"
   inkscape:version="1.2.2 (b0a8486541, 2022-12-01)"
   xmlns:inkscape="http://www.inkscape.org/namespaces/inkscape"
   xmlns:sodipodi="http://sodipodi.sourceforge.net/DTD/sodipodi-0.dtd"
   xmlns="http://www.w3.org/2000/svg"
   xmlns:svg="http://www.w3.org/2000/svg">
  <defs
     id="defs45" />
  <sodipodi:namedview
     id="namedview43"
     pagecolor="#505050"
     bordercolor="#eeeeee"
     borderopacity="1"
     inkscape:showpageshadow="0"
     inkscape:pageopacity="0"
     inkscape:pagecheckerboard="0"
     inkscape:deskcolor="#505050"
     showgrid="false"
     inkscape:zoom="1.5273438"
     inkscape:cx="256"
     inkscape:cy="256"
     inkscape:window-width="1920"
     inkscape:window-height="1011"
     inkscape:window-x="0"
     inkscape:window-y="0"
     inkscape:window-maximized="1"
     inkscape:current-layer="Capa_1" />
  <g
     id="g40"
     transform="matrix(0.49999851,0,0,0.49999851,0,2.088631)">
    <g
       id="g28">
      <path
         d="M 488.468,95.677 H 23.532 C 14.678,95.677 7.5,102.855 7.5,111.709 V 400.29 c 0,8.854 7.179,16.032 16.032,16.032 h 464.935 c 8.854,0 16.032,-7.178 16.032,-16.032 V 111.71 c 10e-4,-8.855 -7.177,-16.033 -16.031,-16.033 z"
         fill="#faf5dc"
         id="path2" />
      <path
         d="m 425.14,392.274 -11.692,-38.975 c -3.051,-10.172 -12.414,-17.138 -23.035,-17.138 H 121.587 c -10.621,0 -19.984,6.966 -23.035,17.138 L 86.86,392.274 H 64.238 c -17.709,0 -32.065,-14.356 -32.065,-32.065 V 95.677 H 23.532 C 14.678,95.677 7.5,102.855 7.5,111.709 V 400.29 c 0,8.854 7.179,16.032 16.032,16.032 h 464.935 c 8.854,0 16.032,-7.178 16.032,-16.032 v -8.016 z"
         fill="#f9eac7"
         id="path4" />
      <path
         d="M 464.419,127.742 H 47.581 c -4.427,0 -8.016,3.589 -8.016,8.016 v 160.323 c 0,4.427 3.589,8.016 8.016,8.016 H 464.42 c 4.427,0 8.016,-3.589 8.016,-8.016 V 135.758 c -10e-4,-4.427 -3.59,-8.016 -8.017,-8.016 z"
         fill="#a4ccff"
         id="path6" />
      <path
         d="M 264.016,127.742 H 167.823 L 296.081,304.097 H 448.387 Z"
         fill="#b3e59f"
         id="path8" />
      <path
         d="M 95.696,127.742 H 47.581 c -4.427,0 -8.016,3.589 -8.016,8.016 v 160.323 c 0,4.427 3.589,8.016 8.016,8.016 h 112.244 z"
         fill="#ff8086"
         id="path10" />
      <path
         d="M 167.823,127.742 H 95.696 l 64.129,176.355 h 136.256 z"
         fill="#ffe07d"
         id="path12" />
      <path
         d="m 84.455,391.625 -4.81,24.698 h 352.71 l -4.811,-24.698 z"
         fill="#f4dbb3"
         id="path14" />
      <path
         d="m 231.952,207.903 h 80.161 V 256 h -80.161 z"
         fill="#ffffff"
         id="path16" />
      <path
         d="m 79.645,215.919 v 32.065 c 0,4.427 3.589,8.016 8.016,8.016 h 157.422 c 1.83,-7.732 2.9,-15.757 2.9,-24.048 0,-8.291 -1.071,-16.316 -2.9,-24.048 H 87.661 c -4.427,-0.001 -8.016,3.588 -8.016,8.015 z"
         fill="#5d5360"
         id="path18" />
      <path
         d="M 424.339,207.903 H 308.802 c -3.011,7.431 -4.705,15.537 -4.705,24.048 0,8.511 1.694,16.617 4.705,24.048 h 115.537 c 4.427,0 8.016,-3.589 8.016,-8.016 v -32.065 c 0,-4.426 -3.589,-8.015 -8.016,-8.015 z"
         fill="#5d5360"
         id="path20" />
      <g
         fill="#ffffff"
         id="g26">
        <circle
           cx="143.774"
           cy="231.952"
           r="24.048"
           id="circle22" />
        <circle
           cx="368.22601"
           cy="231.952"
           r="24.048"
           id="circle24" />
      </g>
    </g>
    <g
       id="g38">
      <path
         d="M 488.468,88.177 H 23.532 C 10.557,88.177 0,98.734 0,111.709 V 400.29 c 0,12.976 10.557,23.532 23.532,23.532 H 488.468 C 501.444,423.822 512,413.265 512,400.29 V 111.709 C 512,98.734 501.443,88.177 488.468,88.177 Z M 497,400.291 c 0,4.705 -3.828,8.532 -8.532,8.532 h -50.533 l -17.304,-57.678 c -4.034,-13.448 -16.177,-22.483 -30.218,-22.483 h -22.188 c -4.142,0 -7.5,3.358 -7.5,7.5 0,4.142 3.358,7.5 7.5,7.5 h 22.188 c 7.365,0 13.734,4.739 15.851,11.793 l 16.011,53.368 H 89.725 l 16.011,-53.369 c 2.116,-7.054 8.486,-11.793 15.851,-11.793 h 214.578 c 4.142,0 7.5,-3.358 7.5,-7.5 0,-4.142 -3.358,-7.5 -7.5,-7.5 H 121.586 c -14.04,0 -26.184,9.035 -30.218,22.483 L 74.064,408.823 H 23.532 C 18.827,408.823 15,404.995 15,400.291 V 111.709 c 0,-4.705 3.828,-8.532 8.532,-8.532 h 464.936 c 4.705,0 8.532,3.828 8.532,8.532 z"
         id="path30" />
      <path
         d="M 464.419,120.242 H 143.772 c -4.142,0 -7.5,3.358 -7.5,7.5 0,4.142 3.358,7.5 7.5,7.5 h 20.232 l 47.39,65.162 H 130.08 l -23.695,-65.162 h 5.328 c 4.142,0 7.5,-3.358 7.5,-7.5 0,-4.142 -3.358,-7.5 -7.5,-7.5 H 47.581 c -8.556,0 -15.516,6.961 -15.516,15.517 v 160.322 c 0,8.556 6.96,15.516 15.516,15.516 H 464.42 c 8.556,0 15.516,-6.96 15.516,-15.516 V 135.758 c 0,-8.555 -6.961,-15.516 -15.517,-15.516 z m -281.868,15 h 78.456 l 68.124,65.162 h -99.19 z M 299.9,296.597 275.83,263.5 h 119.265 l 34.602,33.097 z m -134.84,0 -12.036,-33.097 h 104.258 l 24.07,33.097 z m 74.01,-81.194 c 0.937,5.443 1.414,10.986 1.414,16.548 0,5.562 -0.477,11.106 -1.414,16.548 h -68.45 c 2.979,-4.814 4.703,-10.483 4.703,-16.548 0,-6.065 -1.725,-11.734 -4.703,-16.548 z m 102.31,0 c -2.979,4.814 -4.703,10.483 -4.703,16.548 0,6.065 1.725,11.734 4.703,16.548 h -27.321 c -1.63,-5.336 -2.463,-10.881 -2.463,-16.548 0,-5.668 0.833,-11.213 2.462,-16.548 z M 298.527,248.5 H 254.26 c 0.811,-5.462 1.224,-10.998 1.224,-16.548 0,-5.55 -0.413,-11.087 -1.224,-16.548 h 44.267 c -1.276,5.389 -1.93,10.922 -1.93,16.548 0,5.626 0.654,11.159 1.93,16.548 z M 160.323,231.952 c 0,9.125 -7.423,16.548 -16.548,16.548 -9.125,0 -16.549,-7.423 -16.549,-16.548 0,-9.125 7.424,-16.548 16.549,-16.548 9.125,0 16.548,7.423 16.548,16.548 z M 116.929,248.5 H 87.661 c -0.285,0 -0.516,-0.231 -0.516,-0.516 V 215.92 c 0,-0.285 0.231,-0.516 0.516,-0.516 h 29.268 c -2.979,4.814 -4.703,10.483 -4.703,16.548 0,6.065 1.724,11.734 4.703,16.548 z m 278.142,0 c 2.979,-4.814 4.703,-10.483 4.703,-16.548 0,-6.065 -1.725,-11.734 -4.703,-16.548 h 29.268 c 0.285,0 0.516,0.231 0.516,0.516 v 32.064 c 0,0.285 -0.231,0.516 -0.516,0.516 z m -10.297,-16.548 c 0,9.125 -7.424,16.548 -16.549,16.548 -9.125,0 -16.548,-7.423 -16.548,-16.548 0,-9.125 7.423,-16.548 16.548,-16.548 9.125,0 16.549,7.423 16.549,16.548 z M 47.064,296.081 V 135.758 c 0,-0.285 0.231,-0.517 0.516,-0.517 h 42.844 l 23.695,65.162 H 87.661 c -8.556,0 -15.516,6.96 -15.516,15.516 v 32.064 c 0,8.556 6.96,15.516 15.516,15.516 h 49.403 l 12.035,33.097 H 47.581 c -0.285,10e-4 -0.517,-0.231 -0.517,-0.515 z m 417.872,0 c 0,0.285 -0.231,0.516 -0.516,0.516 H 451.397 L 416.795,263.5 h 7.544 c 8.556,0 15.516,-6.96 15.516,-15.516 V 215.92 c 0,-8.556 -6.96,-15.516 -15.516,-15.516 h -73.508 l -68.124,-65.162 h 181.712 c 0.285,0 0.516,0.232 0.516,0.517 v 160.322 z"
         id="path32" />
      <path
         d="m 143.774,376.758 h -16.033 c -4.142,0 -7.5,3.358 -7.5,7.5 0,4.142 3.358,7.5 7.5,7.5 h 16.033 c 4.142,0 7.5,-3.358 7.5,-7.5 0,-4.142 -3.357,-7.5 -7.5,-7.5 z"
         id="path34" />
      <path
         d="m 368.226,391.758 h 16.033 c 4.142,0 7.5,-3.358 7.5,-7.5 0,-4.142 -3.358,-7.5 -7.5,-7.5 h -16.033 c -4.142,0 -7.5,3.358 -7.5,7.5 0,4.142 3.357,7.5 7.5,7.5 z"
         id="path36" />
    </g>
  </g>
</svg>
